<svg xmlns="http://www.w3.org/2000/svg" xmlns:xlink="http://www.w3.org/1999/xlink" width="500" zoomAndPan="magnify" viewBox="0 0 375 374.999991" height="500" preserveAspectRatio="xMidYMid meet" version="1.0"><defs><g/><clipPath id="id1"><path d="M 53.890625 12 L 320.890625 12 L 320.890625 278.25 L 53.890625 278.25 Z M 53.890625 12 " clip-rule="nonzero"/></clipPath></defs><g clip-path="url(#id1)"><path fill="#332c54" d="M 127.894531 229.914062 L 80.992188 182.964844 L 106.636719 157.289062 L 127.855469 178.527344 L 216.570312 89.71875 C 216.8125 89.480469 217.027344 89.214844 217.21875 88.933594 C 217.40625 88.648438 217.566406 88.347656 217.699219 88.035156 C 217.828125 87.71875 217.925781 87.394531 217.992188 87.058594 C 218.058594 86.722656 218.09375 86.386719 218.09375 86.042969 C 218.09375 85.703125 218.058594 85.367188 217.992188 85.03125 C 217.925781 84.695312 217.828125 84.371094 217.699219 84.054688 C 217.566406 83.742188 217.40625 83.441406 217.21875 83.15625 C 217.027344 82.875 216.8125 82.609375 216.570312 82.371094 L 190.609375 56.375 C 190.367188 56.132812 190.105469 55.917969 189.820312 55.726562 C 189.539062 55.539062 189.238281 55.378906 188.925781 55.246094 C 188.609375 55.117188 188.285156 55.019531 187.949219 54.953125 C 187.617188 54.886719 187.277344 54.851562 186.9375 54.851562 C 186.597656 54.851562 186.257812 54.886719 185.925781 54.953125 C 185.589844 55.019531 185.265625 55.117188 184.949219 55.246094 C 184.636719 55.378906 184.335938 55.539062 184.050781 55.726562 C 183.769531 55.917969 183.507812 56.132812 183.265625 56.375 L 68.792969 170.753906 L 61.554688 163.507812 C 60.953125 162.90625 60.382812 162.273438 59.84375 161.617188 C 59.304688 160.957031 58.796875 160.277344 58.324219 159.566406 C 57.851562 158.859375 57.417969 158.132812 57.015625 157.378906 C 56.617188 156.628906 56.253906 155.859375 55.925781 155.074219 C 55.601562 154.289062 55.316406 153.488281 55.070312 152.671875 C 54.820312 151.859375 54.617188 151.035156 54.449219 150.199219 C 54.285156 149.363281 54.160156 148.523438 54.074219 147.675781 C 53.992188 146.828125 53.949219 145.980469 53.949219 145.128906 C 53.949219 144.277344 53.992188 143.429688 54.074219 142.582031 C 54.160156 141.734375 54.285156 140.894531 54.449219 140.058594 C 54.617188 139.226562 54.820312 138.398438 55.070312 137.585938 C 55.316406 136.769531 55.601562 135.96875 55.925781 135.183594 C 56.253906 134.398438 56.617188 133.628906 57.015625 132.878906 C 57.417969 132.128906 57.851562 131.398438 58.324219 130.691406 C 58.796875 129.984375 59.304688 129.300781 59.84375 128.640625 C 60.382812 127.984375 60.953125 127.355469 61.554688 126.753906 L 168.578125 19.613281 C 169.179688 19.011719 169.808594 18.441406 170.464844 17.902344 C 171.125 17.359375 171.804688 16.855469 172.511719 16.382812 C 173.21875 15.910156 173.949219 15.472656 174.699219 15.070312 C 175.449219 14.671875 176.214844 14.308594 177 13.980469 C 177.789062 13.65625 178.585938 13.367188 179.402344 13.121094 C 180.214844 12.875 181.039062 12.667969 181.871094 12.503906 C 182.707031 12.335938 183.546875 12.210938 184.390625 12.128906 C 185.238281 12.046875 186.085938 12.003906 186.9375 12.003906 C 187.789062 12.003906 188.636719 12.046875 189.480469 12.128906 C 190.328125 12.210938 191.167969 12.335938 192.003906 12.503906 C 192.835938 12.667969 193.660156 12.875 194.472656 13.121094 C 195.289062 13.367188 196.085938 13.65625 196.871094 13.980469 C 197.65625 14.308594 198.425781 14.671875 199.175781 15.070312 C 199.925781 15.472656 200.652344 15.910156 201.359375 16.382812 C 202.070312 16.855469 202.75 17.359375 203.40625 17.902344 C 204.066406 18.441406 204.695312 19.011719 205.296875 19.613281 L 253.300781 67.664062 C 263.441406 77.8125 263.445312 94.273438 253.300781 104.425781 Z M 294.695312 114.507812 L 272.59375 136.632812 C 272.351562 136.875 272.136719 137.136719 271.949219 137.417969 C 271.757812 137.703125 271.597656 138 271.46875 138.316406 C 271.339844 138.628906 271.242188 138.953125 271.175781 139.289062 C 271.109375 139.621094 271.074219 139.960938 271.074219 140.300781 C 271.074219 140.640625 271.109375 140.976562 271.175781 141.3125 C 271.242188 141.644531 271.339844 141.972656 271.46875 142.285156 C 271.601562 142.601562 271.757812 142.898438 271.949219 143.183594 C 272.136719 143.464844 272.351562 143.726562 272.59375 143.96875 C 272.851562 144.226562 273.078125 144.507812 273.28125 144.808594 C 273.484375 145.113281 273.65625 145.429688 273.792969 145.765625 C 273.933594 146.105469 274.039062 146.449219 274.109375 146.808594 C 274.179688 147.164062 274.214844 147.527344 274.214844 147.890625 C 274.214844 148.253906 274.179688 148.613281 274.109375 148.972656 C 274.039062 149.328125 273.933594 149.675781 273.792969 150.011719 C 273.65625 150.347656 273.484375 150.667969 273.28125 150.972656 C 273.078125 151.273438 272.851562 151.554688 272.59375 151.8125 L 190.609375 233.878906 C 190.367188 234.121094 190.105469 234.335938 189.820312 234.527344 C 189.539062 234.714844 189.238281 234.875 188.921875 235.007812 C 188.609375 235.136719 188.285156 235.234375 187.949219 235.300781 C 187.613281 235.367188 187.277344 235.402344 186.9375 235.402344 C 186.59375 235.402344 186.257812 235.367188 185.921875 235.300781 C 185.585938 235.234375 185.261719 235.136719 184.949219 235.007812 C 184.632812 234.875 184.332031 234.714844 184.050781 234.527344 C 183.765625 234.335938 183.503906 234.121094 183.261719 233.878906 L 164.175781 214.773438 L 138.46875 240.5 L 168.574219 270.636719 C 169.175781 271.238281 169.804688 271.808594 170.464844 272.347656 C 171.121094 272.890625 171.804688 273.394531 172.511719 273.867188 C 173.21875 274.339844 173.945312 274.777344 174.695312 275.179688 C 175.445312 275.582031 176.214844 275.945312 177 276.269531 C 177.785156 276.59375 178.585938 276.882812 179.398438 277.128906 C 180.210938 277.375 181.035156 277.582031 181.871094 277.746094 C 182.703125 277.914062 183.542969 278.039062 184.390625 278.121094 C 185.234375 278.207031 186.082031 278.246094 186.933594 278.246094 C 187.785156 278.246094 188.632812 278.207031 189.480469 278.121094 C 190.324219 278.039062 191.164062 277.914062 192 277.746094 C 192.832031 277.582031 193.65625 277.375 194.472656 277.128906 C 195.285156 276.882812 196.085938 276.59375 196.871094 276.269531 C 197.65625 275.945312 198.421875 275.582031 199.171875 275.179688 C 199.921875 274.777344 200.652344 274.339844 201.359375 273.867188 C 202.066406 273.394531 202.746094 272.890625 203.40625 272.347656 C 204.0625 271.808594 204.691406 271.238281 205.292969 270.636719 L 313.226562 162.59375 C 313.828125 161.992188 314.398438 161.363281 314.9375 160.707031 C 315.476562 160.046875 315.980469 159.363281 316.453125 158.65625 C 316.925781 157.949219 317.363281 157.21875 317.761719 156.46875 C 318.164062 155.71875 318.527344 154.949219 318.851562 154.164062 C 319.175781 153.378906 319.464844 152.578125 319.710938 151.761719 C 319.957031 150.949219 320.164062 150.121094 320.328125 149.289062 C 320.496094 148.453125 320.621094 147.613281 320.703125 146.765625 C 320.785156 145.917969 320.828125 145.070312 320.828125 144.21875 C 320.828125 143.367188 320.785156 142.519531 320.703125 141.671875 C 320.621094 140.824219 320.496094 139.984375 320.328125 139.148438 C 320.164062 138.3125 319.957031 137.488281 319.710938 136.675781 C 319.464844 135.859375 319.175781 135.058594 318.851562 134.273438 C 318.527344 133.484375 318.164062 132.71875 317.761719 131.96875 C 317.363281 131.214844 316.925781 130.488281 316.453125 129.777344 C 315.980469 129.070312 315.476562 128.386719 314.9375 127.730469 C 314.398438 127.074219 313.828125 126.441406 313.226562 125.839844 L 305.882812 118.488281 L 301.910156 114.511719 C 301.671875 114.273438 301.414062 114.0625 301.136719 113.875 C 300.859375 113.691406 300.566406 113.53125 300.257812 113.402344 C 299.945312 113.273438 299.628906 113.179688 299.300781 113.113281 C 298.972656 113.046875 298.640625 113.011719 298.304688 113.011719 C 297.96875 113.011719 297.636719 113.046875 297.308594 113.109375 C 296.980469 113.175781 296.660156 113.273438 296.351562 113.402344 C 296.042969 113.527344 295.75 113.6875 295.46875 113.871094 C 295.191406 114.058594 294.933594 114.269531 294.695312 114.507812 Z M 294.695312 114.507812 " fill-opacity="1" fill-rule="nonzero"/></g><g fill="#332c54" fill-opacity="1"><g transform="translate(1.487279, 332.985413)"><g><path d="M 34.921875 -32.5625 L 15.53125 -32.5625 L 15.53125 -26.703125 L 33.34375 -26.703125 L 33.34375 -16.375 L 15.53125 -16.375 L 15.53125 -10.328125 L 35.390625 -10.328125 L 34.671875 0 L 3.625 0 L 3.625 -42.890625 L 34.921875 -42.890625 Z M 34.921875 -32.5625 "/></g></g></g><g fill="#332c54" fill-opacity="1"><g transform="translate(52.528002, 332.985413)"><g><path d="M 39.8125 -42.890625 L 25.4375 -19.15625 L 25.4375 0 L 13.34375 0 L 13.34375 -18.546875 L -1.75 -42.890625 L 11.71875 -42.890625 L 19.8125 -29.53125 L 27.25 -42.890625 Z M 39.8125 -42.890625 "/></g></g></g><g fill="#332c54" fill-opacity="1"><g transform="translate(106.045093, 332.985413)"><g><path d="M 38.84375 -42.890625 L 37.09375 -32.375 L 24.53125 -32.375 L 24.53125 0 L 12.4375 0 L 12.4375 -32.375 L -0.96875 -32.375 L -0.96875 -42.890625 Z M 38.84375 -42.890625 "/></g></g></g><g fill="#332c54" fill-opacity="1"><g transform="translate(158.052208, 332.985413)"><g><path d="M 18.0625 0.609375 C 12.664062 0.609375 8.457031 -0.535156 5.4375 -2.828125 C 2.414062 -5.128906 0.703125 -8.472656 0.296875 -12.859375 L 11.484375 -14.5 C 11.554688 -12.96875 12.226562 -11.726562 13.5 -10.78125 C 14.769531 -9.832031 16.410156 -9.359375 18.421875 -9.359375 C 22.128906 -9.359375 23.984375 -10.328125 23.984375 -12.265625 C 23.984375 -13.148438 23.46875 -13.863281 22.4375 -14.40625 C 21.414062 -14.945312 19.734375 -15.5 17.390625 -16.0625 C 12.398438 -17.269531 8.738281 -18.878906 6.40625 -20.890625 C 4.070312 -22.910156 2.921875 -25.753906 2.953125 -29.421875 C 2.992188 -32.191406 3.726562 -34.632812 5.15625 -36.75 C 6.59375 -38.863281 8.609375 -40.515625 11.203125 -41.703125 C 13.796875 -42.898438 16.847656 -43.5 20.359375 -43.5 C 24.671875 -43.5 28.222656 -42.410156 31.015625 -40.234375 C 33.816406 -38.054688 35.421875 -35.09375 35.828125 -31.34375 L 25.25 -29.53125 C 25.050781 -30.707031 24.4375 -31.664062 23.40625 -32.40625 C 22.375 -33.15625 21.132812 -33.53125 19.6875 -33.53125 C 18.320312 -33.53125 17.222656 -33.253906 16.390625 -32.703125 C 15.566406 -32.160156 15.15625 -31.425781 15.15625 -30.5 C 15.15625 -29.65625 15.566406 -28.921875 16.390625 -28.296875 C 17.222656 -27.671875 18.785156 -27.078125 21.078125 -26.515625 C 24.378906 -25.710938 27.144531 -24.796875 29.375 -23.765625 C 31.613281 -22.742188 33.304688 -21.425781 34.453125 -19.8125 C 35.609375 -18.195312 36.1875 -16.082031 36.1875 -13.46875 C 36.1875 -10.6875 35.429688 -8.238281 33.921875 -6.125 C 32.410156 -4.007812 30.296875 -2.359375 27.578125 -1.171875 C 24.859375 0.015625 21.6875 0.609375 18.0625 0.609375 Z M 18.0625 0.609375 "/></g></g></g><g fill="#332c54" fill-opacity="1"><g transform="translate(210.180124, 332.985413)"><g><path d="M 3.625 0 L 3.625 -42.890625 L 15.703125 -42.890625 L 15.703125 -26.765625 L 31.046875 -26.765625 L 31.046875 -42.890625 L 43.125 -42.890625 L 43.125 0 L 31.046875 0 L 31.046875 -16.3125 L 15.703125 -16.3125 L 15.703125 0 Z M 3.625 0 "/></g></g></g><g fill="#332c54" fill-opacity="1"><g transform="translate(272.032318, 332.985413)"><g><path d="M 23.921875 0.609375 C 19.285156 0.648438 15.296875 -0.171875 11.953125 -1.859375 C 8.617188 -3.554688 6.0625 -5.992188 4.28125 -9.171875 C 2.507812 -12.359375 1.625 -16.1875 1.625 -20.65625 C 1.625 -25.25 2.59375 -29.253906 4.53125 -32.671875 C 6.46875 -36.097656 9.164062 -38.757812 12.625 -40.65625 C 16.082031 -42.550781 20.128906 -43.5 24.765625 -43.5 C 28.992188 -43.5 32.6875 -42.609375 35.84375 -40.828125 C 39.007812 -39.054688 41.46875 -36.585938 43.21875 -33.421875 C 44.96875 -30.265625 45.84375 -26.554688 45.84375 -22.296875 C 45.84375 -17.785156 44.925781 -13.816406 43.09375 -10.390625 C 41.257812 -6.960938 38.691406 -4.28125 35.390625 -2.34375 C 32.085938 -0.414062 28.265625 0.566406 23.921875 0.609375 Z M 23.625 -9.96875 C 26.71875 -9.96875 29.171875 -11.0625 30.984375 -13.25 C 32.796875 -15.445312 33.703125 -18.378906 33.703125 -22.046875 C 33.703125 -25.347656 32.847656 -27.984375 31.140625 -29.953125 C 29.429688 -31.929688 27.144531 -32.921875 24.28125 -32.921875 C 22.1875 -32.921875 20.351562 -32.40625 18.78125 -31.375 C 17.21875 -30.351562 16 -28.945312 15.125 -27.15625 C 14.257812 -25.363281 13.828125 -23.300781 13.828125 -20.96875 C 13.828125 -17.5 14.691406 -14.796875 16.421875 -12.859375 C 18.160156 -10.929688 20.5625 -9.96875 23.625 -9.96875 Z M 23.625 -9.96875 "/></g></g></g><g fill="#332c54" fill-opacity="1"><g transform="translate(334.609305, 332.985413)"><g><path d="M 15.46875 0 L 3.625 0 L 3.625 -42.890625 L 19.875 -42.890625 C 26.519531 -42.890625 31.421875 -41.691406 34.578125 -39.296875 C 37.742188 -36.898438 39.328125 -33.40625 39.328125 -28.8125 C 39.328125 -25.75 38.5 -23.109375 36.84375 -20.890625 C 35.195312 -18.679688 32.863281 -16.984375 29.84375 -15.796875 C 26.820312 -14.609375 23.21875 -14.015625 19.03125 -14.015625 L 15.46875 -14.015625 Z M 20.234375 -33.15625 L 15.46875 -33.15625 L 15.46875 -23.796875 L 19.625 -23.796875 C 22.125 -23.796875 24.023438 -24.175781 25.328125 -24.9375 C 26.640625 -25.707031 27.296875 -26.957031 27.296875 -28.6875 C 27.296875 -30.21875 26.734375 -31.34375 25.609375 -32.0625 C 24.484375 -32.789062 22.691406 -33.15625 20.234375 -33.15625 Z M 20.234375 -33.15625 "/></g></g></g></svg>